<?xml version="1.0" standalone="no"?>
<!DOCTYPE svg PUBLIC "-//W3C//DTD SVG 20010904//EN"
 "http://www.w3.org/TR/2001/REC-SVG-20010904/DTD/svg10.dtd">
<svg version="1.0" xmlns="http://www.w3.org/2000/svg"
 width="170.000000pt" height="150.000000pt" viewBox="0 0 170.000000 150.000000"
 preserveAspectRatio="xMidYMid meet">
<g transform="translate(0.000000,150.000000) scale(0.100000,-0.100000)"
fill="#444444" stroke="none">
<path d="M755 1310 c-16 -4 -81 -26 -144 -49 -118 -42 -147 -61 -269 -175 -50
-47 -62 -64 -60 -85 2 -19 11 -28 37 -35 44 -13 157 25 221 73 41 32 147 71
193 71 33 0 559 -364 616 -425 28 -31 51 -62 51 -68 0 -6 30 18 68 55 37 36
88 77 113 90 l47 23 -39 95 c-105 258 -203 400 -258 371 -32 -18 -76 -13 -305
29 -230 43 -225 42 -271 30z"/>
<path d="M196 1113 c-12 -38 -67 -282 -102 -454 -4 -24 4 -33 84 -91 82 -60
90 -64 100 -47 28 44 111 30 134 -22 11 -26 18 -29 58 -29 25 0 53 -6 62 -14
26 -19 38 -60 28 -94 -7 -27 -6 -30 20 -36 17 -3 35 -17 45 -33 9 -15 44 -48
77 -72 54 -38 66 -43 102 -38 22 3 46 14 54 24 11 16 9 21 -20 46 -18 15 -55
43 -83 62 -27 19 -43 35 -35 35 19 0 60 -25 134 -84 46 -35 68 -46 96 -46 41
0 80 23 80 48 0 9 -37 54 -82 99 -45 45 -80 85 -77 87 3 3 43 -28 90 -69 80
-72 86 -75 129 -73 38 3 48 8 67 37 43 64 25 120 -64 207 -45 44 -41 42 65
-30 129 -87 156 -93 196 -45 30 35 35 93 12 137 -29 54 -116 123 -370 292
-317 211 -283 206 -526 75 -107 -57 -186 -57 -212 0 -11 24 -8 30 51 89 l63
63 -54 6 c-29 3 -65 9 -79 12 -25 6 -28 3 -43 -42z"/>
<path d="M266 476 c-45 -76 -27 -146 37 -146 44 0 52 8 76 64 25 58 19 91 -20
111 -47 25 -65 19 -93 -29z"/>
<path d="M406 407 c-33 -55 -33 -97 -3 -125 49 -46 98 -19 127 67 12 38 12 44
-7 69 -14 19 -31 28 -56 30 -33 3 -38 0 -61 -41z"/>
<path d="M527 282 c-26 -29 -20 -58 16 -86 36 -28 86 -34 133 -16 l27 11 -57
54 c-61 59 -91 68 -119 37z"/>
</g>
</svg>
